<svg xmlns="http://www.w3.org/2000/svg" xmlns:xlink="http://www.w3.org/1999/xlink" width="479.44" height="431.17" viewBox="0 0 479.44 431.17">
  <defs>
    <clipPath id="clip-mobile_quotes_bg">
      <rect width="479.44" height="431.17"/>
    </clipPath>
  </defs>
  <g id="mobile_quotes_bg" data-name="mobile quotes bg" clip-path="url(#clip-mobile_quotes_bg)">
    <rect width="479.44" height="431.17" fill="#fff"/>
    <g id="Group_4" data-name="Group 4" transform="translate(-1574.28 -336.295)">
      <path id="Path_301" data-name="Path 301" d="M635.281,289.8V635.5h6.375V289.8a15.944,15.944,0,0,0-15.926-15.932l-369.661-.192v6.369l369.661.192A9.587,9.587,0,0,1,635.281,289.8Z" transform="translate(1399.8 68.753)" fill="#d0b468"/>
      <path id="Path_302" data-name="Path 302" d="M756.381,516.679H389.95a9.587,9.587,0,0,1-9.557-9.557V161.42H374v345.7a15.944,15.944,0,0,0,15.926,15.926H756.381Z" transform="translate(1211.984 238.568)" fill="#d0b468"/>
      <path id="Union_2" data-name="Union 2" d="M41.533,44.551a17.687,17.687,0,0,1-3.527-5.785,19.2,19.2,0,0,1-1.3-6.861q0-7.289,4.755-14.756A42.143,42.143,0,0,1,54.186,4.46Q60.925,0,64.754,0a3.581,3.581,0,0,1,2.529.921,3.181,3.181,0,0,1,.994,2.451q0,2.3-2.914,3.83Q58.4,10.811,55.171,14.334q-3.06,3.295-3.065,4.829,0,1.461,2.3,1.764l.994.156,1.154.073A12.445,12.445,0,0,1,64.638,25.8a14.591,14.591,0,0,1,3.1,9.39A13.971,13.971,0,0,1,63.912,45,14.549,14.549,0,0,1,52.8,49.687,14.706,14.706,0,0,1,41.533,44.551Zm-36.708,0A17.547,17.547,0,0,1,1.3,38.766,19.121,19.121,0,0,1,0,31.9q0-7.289,4.755-14.756A42.148,42.148,0,0,1,17.477,4.46Q24.22.02,28.055.015a3.583,3.583,0,0,1,2.529.921,3.165,3.165,0,0,1,.994,2.451q0,2.3-2.914,3.83Q21.7,10.824,18.475,14.347q-3.069,3.295-3.069,4.83,0,1.461,2.3,1.764l1,.156,1.15.074a12.435,12.435,0,0,1,8.084,4.639,14.589,14.589,0,0,1,3.1,9.39,13.97,13.97,0,0,1-3.83,9.814,14.616,14.616,0,0,1-11.122,4.674A14.692,14.692,0,0,1,4.824,44.551Z" transform="translate(1985.159 717.921)" fill="#f1e7ca"/>
      <path id="Union_3" data-name="Union 3" d="M41.533,44.551a17.687,17.687,0,0,1-3.527-5.785,19.2,19.2,0,0,1-1.3-6.861q0-7.289,4.755-14.756A42.143,42.143,0,0,1,54.186,4.46Q60.925,0,64.754,0a3.581,3.581,0,0,1,2.529.921,3.181,3.181,0,0,1,.994,2.451q0,2.3-2.914,3.83Q58.4,10.811,55.171,14.334q-3.06,3.295-3.065,4.829,0,1.461,2.3,1.764l.994.156,1.154.073A12.445,12.445,0,0,1,64.638,25.8a14.591,14.591,0,0,1,3.1,9.39A13.971,13.971,0,0,1,63.912,45,14.549,14.549,0,0,1,52.8,49.687,14.706,14.706,0,0,1,41.533,44.551Zm-36.708,0A17.547,17.547,0,0,1,1.3,38.766,19.121,19.121,0,0,1,0,31.9q0-7.289,4.755-14.756A42.148,42.148,0,0,1,17.477,4.46Q24.22.02,28.055.015a3.583,3.583,0,0,1,2.529.921,3.165,3.165,0,0,1,.994,2.451q0,2.3-2.914,3.83Q21.7,10.824,18.475,14.347q-3.069,3.295-3.069,4.83,0,1.461,2.3,1.764l1,.156,1.15.074a12.435,12.435,0,0,1,8.084,4.639,14.589,14.589,0,0,1,3.1,9.39,13.97,13.97,0,0,1-3.83,9.814,14.616,14.616,0,0,1-11.122,4.674A14.692,14.692,0,0,1,4.824,44.551Z" transform="translate(1642.281 386.128) rotate(180)" fill="#f1e7ca"/>
    </g>
  </g>
</svg>
