<svg xmlns="http://www.w3.org/2000/svg" xmlns:xlink="http://www.w3.org/1999/xlink" width="967.06" height="364.11" viewBox="0 0 967.06 364.11">
  <defs>
    <clipPath id="clip-quotes_bg">
      <rect width="967.06" height="364.11"/>
    </clipPath>
  </defs>
  <g id="quotes_bg" data-name="quotes bg" clip-path="url(#clip-quotes_bg)">
    <rect width="967.06" height="364.11" fill="#fff"/>
    <g id="Group_3" data-name="Group 3" transform="translate(-476 -358)">
      <path id="Path_301" data-name="Path 301" d="M1055.85,300.59V510.37h10.64V300.59A26.61,26.61,0,0,0,1039.91,274l-783.842-.32v10.63l783.842.32A16,16,0,0,1,1055.85,300.59Z" transform="translate(356.565 94.32)" fill="#d0b468"/>
      <path id="Path_302" data-name="Path 302" d="M1179.07,607.16H400.62a16,16,0,0,1-15.95-15.95V381.42H374V591.21a26.61,26.61,0,0,0,26.58,26.58h778.49Z" transform="translate(122.001 94.32)" fill="#d0b468"/>
      <path id="Union_2" data-name="Union 2" d="M69.317,74.353A29.518,29.518,0,0,1,63.43,64.7a32.044,32.044,0,0,1-2.165-11.451q0-12.166,7.936-24.627A70.335,70.335,0,0,1,90.434,7.443Q101.681,0,108.073,0a5.977,5.977,0,0,1,4.22,1.537,5.309,5.309,0,0,1,1.66,4.091q0,3.838-4.863,6.393-11.63,6.018-17.012,11.9-5.107,5.5-5.115,8.06,0,2.439,3.838,2.944l1.66.26,1.926.122a20.769,20.769,0,0,1,13.491,7.743,24.351,24.351,0,0,1,5.179,15.672A23.317,23.317,0,0,1,106.666,75.1a24.282,24.282,0,0,1-18.541,7.822Q77.123,82.926,69.317,74.353Zm-61.265,0A29.285,29.285,0,0,1,2.165,64.7,31.912,31.912,0,0,1,0,53.248Q0,41.082,7.937,28.62A70.342,70.342,0,0,1,29.169,7.443Q40.424.033,46.822.025a5.98,5.98,0,0,1,4.22,1.537A5.283,5.283,0,0,1,52.7,5.654q0,3.839-4.863,6.393-11.63,6.018-17,11.9-5.122,5.5-5.122,8.06,0,2.438,3.838,2.944l1.667.26,1.919.123a20.753,20.753,0,0,1,13.491,7.742,24.349,24.349,0,0,1,5.18,15.672,23.315,23.315,0,0,1-6.392,16.379,24.394,24.394,0,0,1-18.563,7.8Q15.851,82.926,8.052,74.353Z" transform="translate(1329.098 639.185)" fill="#f1e7ca"/>
      <path id="Union_3" data-name="Union 3" d="M69.317,74.353A29.518,29.518,0,0,1,63.43,64.7a32.044,32.044,0,0,1-2.165-11.451q0-12.166,7.936-24.627A70.335,70.335,0,0,1,90.434,7.443Q101.681,0,108.073,0a5.977,5.977,0,0,1,4.22,1.537,5.309,5.309,0,0,1,1.66,4.091q0,3.838-4.863,6.393-11.63,6.018-17.012,11.9-5.107,5.5-5.115,8.06,0,2.439,3.838,2.944l1.66.26,1.926.122a20.769,20.769,0,0,1,13.491,7.743,24.351,24.351,0,0,1,5.179,15.672A23.317,23.317,0,0,1,106.666,75.1a24.282,24.282,0,0,1-18.541,7.822Q77.123,82.926,69.317,74.353Zm-61.265,0A29.285,29.285,0,0,1,2.165,64.7,31.912,31.912,0,0,1,0,53.248Q0,41.082,7.937,28.62A70.342,70.342,0,0,1,29.169,7.443Q40.424.033,46.822.025a5.98,5.98,0,0,1,4.22,1.537A5.283,5.283,0,0,1,52.7,5.654q0,3.839-4.863,6.393-11.63,6.018-17,11.9-5.122,5.5-5.122,8.06,0,2.438,3.838,2.944l1.667.26,1.919.123a20.753,20.753,0,0,1,13.491,7.742,24.349,24.349,0,0,1,5.18,15.672,23.315,23.315,0,0,1-6.392,16.379,24.394,24.394,0,0,1-18.563,7.8Q15.851,82.926,8.052,74.353Z" transform="translate(589.958 440.926) rotate(180)" fill="#f1e7ca"/>
    </g>
  </g>
</svg>
