<svg width="223" height="36" viewBox="0 0 223 36" fill="none" xmlns="http://www.w3.org/2000/svg">
<path d="M2.33984 24.0293C1.41211 24.0293 0.928711 23.5801 0.889648 22.6816C0.821289 21.1387 2.13477 18.8291 4.83008 15.7529C5.78711 14.6689 6.86133 13.5605 8.05273 12.4277C9.25391 11.2852 10.1768 10.3721 10.8213 9.68848C11.4756 9.00488 11.9883 8.41406 12.3594 7.91602C13.0234 7.03711 13.3408 6.29004 13.3115 5.6748C13.2529 4.50293 12.2715 3.91699 10.3672 3.91699C8.16016 3.91699 6.0166 4.71289 3.93652 6.30469C2.70605 7.25195 1.8418 8.23828 1.34375 9.26367C1.09961 9.76172 0.987305 10.2451 1.00684 10.7139C1.02637 11.1729 1.17285 11.5293 1.44629 11.7832C1.71973 12.0273 2.05664 12.1494 2.45703 12.1494C2.86719 12.1494 3.31152 12.0469 3.79004 11.8418C4.26855 11.627 4.7666 11.3438 5.28418 10.9922C5.80176 10.6309 6.31934 10.2109 6.83691 9.73242C7.36426 9.25391 7.85742 8.75098 8.31641 8.22363C9.3125 7.09082 10.0352 6.01172 10.4844 4.98633C10.6211 4.69336 10.7188 4.54688 10.7773 4.54688C10.8457 4.54688 10.8848 4.63477 10.8945 4.81055C10.9238 5.2793 10.7383 5.94824 10.3379 6.81738C9.9375 7.68652 9.44434 8.47754 8.8584 9.19043C8.28223 9.89355 7.66211 10.499 6.99805 11.0068C5.63086 12.0615 4.25391 12.5889 2.86719 12.5889C2.1543 12.5889 1.59766 12.4375 1.19727 12.1348C0.806641 11.8223 0.601562 11.3975 0.582031 10.8604C0.5625 10.3232 0.679688 9.77637 0.933594 9.21973C1.19727 8.65332 1.56348 8.09668 2.03223 7.5498C2.51074 7.00293 3.07715 6.48535 3.73145 5.99707C4.38574 5.49902 5.09375 5.06445 5.85547 4.69336C7.51562 3.88281 9.1416 3.47754 10.7334 3.47754C11.6221 3.47754 12.3398 3.6582 12.8867 4.01953C15.25 5.5918 13.0625 9.86914 6.32422 16.8516C4.09766 19.166 2.80371 20.5576 2.44238 21.0264C2.08105 21.4854 1.83691 21.8174 1.70996 22.0225C1.2998 22.6768 1.27539 23.1602 1.63672 23.4727C1.7832 23.5996 2.05176 23.6631 2.44238 23.6631C2.84277 23.6631 3.4043 23.5215 4.12695 23.2383C4.84961 22.9453 5.65039 22.5059 6.5293 21.9199C8.58008 20.5625 10.4844 18.79 12.2422 16.6025C12.4277 16.3584 12.6914 16.0312 13.0332 15.6211L19.4639 8.0332L21.5 5.7041H23.624C23.5752 5.77246 23.4336 5.94824 23.1992 6.23145L16.71 13.7607C15.5869 15.0205 14.6104 16.0898 13.7803 16.9688C12.96 17.8379 12.1738 18.8193 11.4219 19.9131C10.6797 21.0068 10.3232 21.9297 10.3525 22.6816C10.3916 23.3262 10.792 23.6484 11.5537 23.6484C12.4424 23.6484 13.5215 23.1602 14.791 22.1836C15.1523 21.9102 15.4697 21.6318 15.7432 21.3486C15.8604 21.417 15.8994 21.5195 15.8604 21.6562C15.8213 21.7832 15.792 21.8564 15.7725 21.876C14.708 22.8135 13.6484 23.4629 12.5938 23.8242C12.1836 23.9609 11.7783 24.0293 11.3779 24.0293C10.9873 24.0293 10.626 23.9121 10.2939 23.6777C9.96191 23.4336 9.78125 23.0283 9.75195 22.4619C9.71289 21.5049 10.0547 20.4453 10.7773 19.2832C7.91602 21.7246 5.54297 23.2285 3.6582 23.7949C3.13086 23.9512 2.69141 24.0293 2.33984 24.0293ZM19.1855 23.7217C18.9219 23.6729 18.6289 23.6484 18.3066 23.6484C17.7891 23.6484 17.335 23.6973 16.9443 23.7949L22.0273 16.5293C22.6621 15.6406 22.9893 15.1133 23.0088 14.9473C23.0479 14.625 22.9453 14.4639 22.7012 14.4639C22.3398 14.4639 21.4414 15.3574 20.0059 17.1445L19.0684 18.3018C18.9902 18.3408 18.9072 18.3213 18.8193 18.2432C18.7412 18.1553 18.7217 18.0918 18.7607 18.0527C19.0439 17.75 19.3613 17.3691 19.7129 16.9102C20.0742 16.4414 20.4502 15.9922 20.8408 15.5625C21.7979 14.498 22.5938 13.9658 23.2285 13.9658C24.3027 13.9658 24.6445 14.5176 24.2539 15.6211C24.1758 15.8555 24.0049 16.1582 23.7412 16.5293L20.665 20.8066L20.7383 20.9678C23.1992 18.2725 24.9473 16.4902 25.9824 15.6211C26.9688 14.8008 27.7012 14.3223 28.1797 14.1855C28.668 14.0391 29.0635 13.9658 29.3662 13.9658C29.6787 13.9658 29.9424 14.0098 30.1572 14.0977C30.3818 14.1855 30.5625 14.2979 30.6992 14.4346C30.9531 14.6885 31.0752 14.9961 31.0654 15.3574C31.0654 15.709 30.9971 16.0703 30.8604 16.4414C30.7334 16.8125 30.5137 17.252 30.2012 17.7598C29.5469 18.8047 28.4434 20.167 26.8906 21.8467C26.2461 22.5205 25.9092 22.916 25.8799 23.0332C25.8506 23.1406 25.8359 23.2236 25.8359 23.2822C25.8359 23.5068 26.1338 23.6191 26.7295 23.6191C27.335 23.6191 27.8965 23.4971 28.4141 23.2529C28.9414 22.999 29.4541 22.6816 29.9521 22.3008C30.46 21.9199 30.9385 21.5049 31.3877 21.0557C31.8467 20.5967 32.2568 20.1621 32.6182 19.752C32.9795 19.332 33.2822 18.9707 33.5264 18.668C33.7705 18.3555 33.9365 18.1504 34.0244 18.0527L34.332 18.3018C34.2344 18.4092 34.0586 18.624 33.8047 18.9463C33.5508 19.2686 33.2334 19.6396 32.8525 20.0596C32.4814 20.4795 32.0566 20.9238 31.5781 21.3926C31.1094 21.8613 30.6113 22.291 30.084 22.6816C28.8535 23.5801 27.7402 24.0293 26.7441 24.0293C25.8652 24.0293 25.2549 23.8096 24.9131 23.3701C24.8057 23.2334 24.752 23.0723 24.752 22.8867C24.752 22.7012 24.7764 22.4912 24.8252 22.2568C24.8838 22.0127 25.0156 21.7051 25.2207 21.334C25.6797 20.543 26.3291 19.6738 27.1689 18.7266C28.0186 17.7793 28.5752 17.1396 28.8389 16.8076C29.1025 16.4756 29.3125 16.1875 29.4688 15.9434C29.7617 15.4746 29.9082 15.1133 29.9082 14.8594C29.9082 14.5078 29.6738 14.332 29.2051 14.332C28.2383 14.332 26.6416 15.4258 24.415 17.6133C23.292 18.707 22.0029 20.1475 20.5479 21.9346L19.1855 23.7217ZM41.6709 10.7578C41.5342 10.8848 41.3779 10.9873 41.2021 11.0654C41.0264 11.1338 40.8262 11.168 40.6016 11.168C40.377 11.168 40.1816 11.085 40.0156 10.9189C39.8594 10.7432 39.7812 10.5479 39.7812 10.333C39.7812 10.1182 39.8203 9.92773 39.8984 9.76172C39.9766 9.5957 40.084 9.44922 40.2207 9.32227C40.5039 9.0293 40.8115 8.88281 41.1436 8.88281C41.4854 8.88281 41.7344 8.97559 41.8906 9.16113C42.0566 9.33691 42.1396 9.53223 42.1396 9.74707C42.1396 9.96191 42.0957 10.1523 42.0078 10.3184C41.9297 10.4844 41.8174 10.6309 41.6709 10.7578ZM32.3691 23.165C32.3691 23.4678 32.6572 23.6191 33.2334 23.6191C33.8096 23.6191 34.3516 23.4873 34.8594 23.2236C35.377 22.96 35.8945 22.6328 36.4121 22.2422C36.9395 21.8418 37.4473 21.4072 37.9355 20.9385L39.2539 19.6201C39.6445 19.21 39.9668 18.8584 40.2207 18.5654C40.4746 18.2627 40.626 18.0869 40.6748 18.0381L40.9678 18.3018C40.8701 18.3994 40.6846 18.6094 40.4111 18.9316C40.1475 19.2441 39.8154 19.6152 39.415 20.0449C39.0146 20.4648 38.5654 20.9092 38.0674 21.3779C37.5693 21.8467 37.0469 22.2764 36.5 22.667C35.2402 23.5752 34.1367 24.0293 33.1895 24.0293C32.584 24.0293 32.1006 23.9219 31.7393 23.707C31.3779 23.4824 31.1973 23.2285 31.1973 22.9453C31.1973 22.6621 31.2266 22.4082 31.2852 22.1836C31.3438 21.959 31.4512 21.6904 31.6074 21.3779C31.7637 21.0654 31.9834 20.6992 32.2666 20.2793C32.54 19.8594 32.9014 19.3564 33.3506 18.7705C33.79 18.1846 34.3271 17.5059 34.9619 16.7344L37.2178 14.0684C37.335 14.0977 37.5742 14.1123 37.9355 14.1123H38.624C38.8779 14.1123 39.083 14.1025 39.2393 14.083C36.0068 17.9404 34.1904 20.1377 33.79 20.6748C33.3799 21.2021 33.0771 21.6172 32.8818 21.9199C32.54 22.4375 32.3691 22.8525 32.3691 23.165ZM39.1074 23.1504C39.1074 23.4434 39.3418 23.5947 39.8105 23.6045C40.2793 23.6143 40.748 23.5117 41.2168 23.2969C41.6953 23.082 42.1689 22.8086 42.6377 22.4766C43.1064 22.1445 43.5605 21.7734 44 21.3633C44.4395 20.9434 44.8496 20.5283 45.2305 20.1182C45.6113 19.708 45.9531 19.3223 46.2559 18.9609L47.0176 18.0527L47.3398 18.3018L46.5781 19.1807C43.8535 22.4131 41.5635 24.0293 39.708 24.0293C39.1709 24.0293 38.7705 23.9219 38.5068 23.707C38.2334 23.4922 38.0967 23.2578 38.0967 23.0039C38.0967 22.75 38.1113 22.54 38.1406 22.374C38.1602 22.208 38.209 22.0273 38.2871 21.832C38.3652 21.627 38.4824 21.3877 38.6387 21.1143C38.7852 20.8408 38.9854 20.5088 39.2393 20.1182L41.5244 16.8223L45.3037 11.5049H44.1465C43.8535 11.5049 43.707 11.4365 43.707 11.2998C43.707 11.1533 43.8926 11.0801 44.2637 11.0801H45.5967L48.3066 7.27148C48.9902 7.37891 49.6689 7.37891 50.3428 7.27148L47.5156 11.0801H51.2949C51.5684 11.0801 51.7051 11.1533 51.7051 11.2998C51.7051 11.4365 51.583 11.5049 51.3389 11.5049H47.1934L41.1289 19.752C40.084 21.2266 39.4883 22.1348 39.3418 22.4766C39.1855 22.8184 39.1074 23.043 39.1074 23.1504ZM52.584 22.7402C51.9688 23.1309 51.2998 23.4531 50.5771 23.707C49.8643 23.9609 49.1855 24.0879 48.541 24.0879C47.8965 24.0879 47.4033 24.0244 47.0615 23.8975C46.7295 23.7607 46.4561 23.5752 46.2412 23.3408C45.3232 22.3447 45.3281 20.875 46.2559 18.9316C46.6562 18.0723 47.2617 17.291 48.0723 16.5879C48.8828 15.875 49.5957 15.3428 50.2109 14.9912C51.4023 14.3076 52.5205 13.9658 53.5654 13.9658C54.6006 13.9658 55.1426 14.2881 55.1914 14.9326C55.2598 15.9775 53.9902 17.1152 51.3828 18.3457C50.4258 18.7949 49.2197 19.2588 47.7646 19.7373C47.1885 20.6748 46.9004 21.4414 46.9004 22.0371C46.9004 22.623 47.0518 23.043 47.3545 23.2969C47.667 23.541 48.1162 23.6631 48.7021 23.6631C49.2979 23.6631 49.9375 23.5361 50.6211 23.2822C51.3145 23.0283 51.959 22.7061 52.5547 22.3154C53.1602 21.9248 53.707 21.5 54.1953 21.041C54.6836 20.582 55.1133 20.1426 55.4844 19.7227C55.8652 19.3027 56.1729 18.9414 56.4072 18.6387C56.6514 18.3262 56.8174 18.1309 56.9053 18.0527L57.2129 18.3018C57.0859 18.4092 56.8906 18.6289 56.627 18.9609C56.373 19.293 56.0459 19.6738 55.6455 20.1035C55.2549 20.5234 54.8008 20.9678 54.2832 21.4365C53.7754 21.9053 53.209 22.3398 52.584 22.7402ZM48.1016 19.2246C51.0508 18.1895 52.9502 17.1592 53.7998 16.1338C54.083 15.792 54.2246 15.46 54.2246 15.1377C54.2246 14.5908 53.9707 14.3174 53.4629 14.3174C52.5645 14.3174 51.4414 15.1035 50.0938 16.6758C49.1562 17.7695 48.4922 18.6191 48.1016 19.2246ZM62.3984 20.0156C60.0059 22.6914 58.1016 24.0293 56.6855 24.0293C55.4453 24.0293 54.8252 23.3896 54.8252 22.1104C54.8252 20.626 55.4355 19.1904 56.6562 17.8037C58.8535 15.2451 61.1729 13.9658 63.6143 13.9658C64.3467 13.9658 64.8887 14.1904 65.2402 14.6396C65.3477 14.7861 65.4014 14.9229 65.4014 15.0498C65.4014 15.1768 65.3965 15.2598 65.3867 15.2988C65.3867 15.3281 65.3867 15.3672 65.3867 15.416L72.6523 4.98633L75.7285 0.635742C76.0898 0.791992 76.4268 0.870117 76.7393 0.870117C77.0518 0.870117 77.335 0.855469 77.5889 0.826172L63.6729 20.3379C63.1064 21.0996 62.6768 21.7051 62.3838 22.1543C62.1006 22.5938 61.959 22.9453 61.959 23.209C61.959 23.4629 62.0811 23.5898 62.3252 23.5898C63.2725 23.5898 64.3467 23.1504 65.5479 22.2715C66.6514 21.4707 67.8574 20.2695 69.166 18.668C69.4102 18.3555 69.5811 18.1504 69.6787 18.0527L70.001 18.3018C69.8936 18.4092 69.7031 18.624 69.4297 18.9463C69.166 19.2686 68.834 19.6396 68.4336 20.0596C68.043 20.4795 67.5986 20.9238 67.1006 21.3926C66.6123 21.8613 66.0898 22.291 65.5332 22.6816C64.2734 23.5801 63.1602 24.0293 62.1934 24.0293C61.2363 24.0293 60.7627 23.7168 60.7725 23.0918C60.7822 22.457 61.3633 21.4512 62.5156 20.0742L62.3984 20.0156ZM58.1504 18.7852C56.7539 20.4844 56.0557 21.8418 56.0557 22.8574C56.0557 23.3457 56.2998 23.5898 56.7881 23.5898C57.6572 23.5898 58.8682 22.8818 60.4209 21.4658L61.6221 20.3086C62.3154 19.625 62.8818 18.9707 63.3213 18.3457L64.625 16.4854C64.8496 16.0361 64.9619 15.6504 64.9619 15.3281C64.9619 15.0059 64.8447 14.7764 64.6104 14.6396C64.376 14.4932 64.1318 14.4199 63.8779 14.4199C63.624 14.4199 63.3018 14.5078 62.9111 14.6836C62.5303 14.8496 62.0957 15.1133 61.6074 15.4746C60.543 16.2363 59.3906 17.3398 58.1504 18.7852ZM101.393 3.47754C102.301 3.47754 102.755 3.83887 102.755 4.56152C102.755 5.63574 101.925 6.8418 100.265 8.17969C98.6826 9.43945 96.7393 10.5332 94.4346 11.4609C92.0127 12.418 89.7812 12.9453 87.7402 13.043C84.7227 16.373 83.2139 18.9854 83.2139 20.8799C83.2139 22.3838 83.9268 23.2822 85.3525 23.5752C85.3525 20.9385 86.2607 18.5508 88.0771 16.4121C89.2002 15.0938 90.4746 14.1758 91.9004 13.6582C92.6035 13.3945 93.3408 13.2627 94.1123 13.2627C94.8936 13.2627 95.499 13.4531 95.9287 13.834C96.3584 14.2051 96.5732 14.6836 96.5732 15.2695C96.5732 15.8555 96.4463 16.4756 96.1924 17.1299C95.9482 17.7744 95.6016 18.4189 95.1523 19.0635C94.7031 19.708 94.1562 20.333 93.5117 20.9385C92.877 21.5342 92.1689 22.0615 91.3877 22.5205C89.6787 23.5264 87.8965 24.0293 86.041 24.0293H85.9092C85.8701 24.0293 85.8262 24.0244 85.7773 24.0146C85.8359 25.7139 86.124 26.9004 86.6416 27.5742C86.6807 27.623 86.7002 27.6621 86.7002 27.6914V27.7646C86.7002 27.8135 86.6562 27.8379 86.5684 27.8379C86.1973 27.8379 85.8506 27.0664 85.5283 25.5234C85.4307 25.0547 85.3721 24.542 85.3525 23.9854C83.917 23.79 82.9551 23.0527 82.4668 21.7734C82.3105 21.3535 82.2324 20.8701 82.2324 20.3232C82.2324 18.0381 83.2725 15.5576 85.3525 12.8818C83.7119 12.5107 82.667 11.666 82.2178 10.3477C82.0811 9.9375 82.0127 9.49805 82.0127 9.0293C82.0127 8.56055 82.1396 8.07227 82.3936 7.56445C82.6475 7.04688 82.999 6.54883 83.4482 6.07031C83.9072 5.58203 84.4492 5.12305 85.0742 4.69336C85.709 4.26367 86.4023 3.8877 87.1543 3.56543C88.7949 2.8623 90.4648 2.51074 92.1641 2.51074C92.9551 2.51074 93.3506 2.59375 93.3506 2.75977C93.3506 2.83789 93.2871 2.87695 93.1602 2.87695L92.0908 2.81836C90.0303 2.81836 87.9697 3.51172 85.9092 4.89844C84.5811 5.78711 83.6387 6.78809 83.082 7.90137C82.7891 8.47754 82.6426 8.99512 82.6426 9.4541C82.6426 9.90332 82.7061 10.2793 82.833 10.582C82.9697 10.875 83.1602 11.1484 83.4043 11.4023C83.9316 11.9492 84.6689 12.3301 85.6162 12.5449C87.667 10.0059 90.1523 7.87695 93.0723 6.1582C96.1191 4.37109 98.8926 3.47754 101.393 3.47754ZM102.403 4.60547C102.403 4.08789 102.022 3.8291 101.261 3.8291C99.8545 3.8291 97.8379 4.73242 95.2109 6.53906C92.6523 8.27734 90.2842 10.3135 88.1064 12.6475C90.8115 12.3545 93.8682 11.2461 97.2764 9.32227C99.2979 8.17969 100.777 7.07129 101.715 5.99707C102.174 5.46973 102.403 5.00586 102.403 4.60547ZM85.7773 23.6338C85.8457 23.6436 85.9141 23.6484 85.9824 23.6484H86.2021C87.4424 23.6484 88.8047 23.0918 90.2891 21.9785C91.6074 20.9824 92.7646 19.7617 93.7607 18.3164C94.7373 16.8906 95.2256 15.7188 95.2256 14.8008C95.2256 14.3906 95.1182 14.0977 94.9033 13.9219C94.6885 13.7461 94.3223 13.6582 93.8047 13.6582C93.2969 13.6582 92.7354 13.7754 92.1201 14.0098C91.5049 14.2441 90.8945 14.5762 90.2891 15.0059C89.6934 15.4355 89.1221 15.9531 88.5752 16.5586C88.0283 17.1641 87.5449 17.8379 87.125 18.5801C86.2266 20.1816 85.7773 21.8613 85.7773 23.6191V23.6338ZM106.256 21.6416C105.895 21.6416 105.631 21.4951 105.465 21.2021C104.303 22.5205 103.048 23.3945 101.7 23.8242C101.251 23.9609 100.812 24.0293 100.382 24.0293C99.9619 24.0293 99.6006 23.9805 99.2979 23.8828C98.9951 23.7852 98.7461 23.6484 98.5508 23.4727C97.7598 22.7891 97.6816 21.6123 98.3164 19.9424C98.5605 19.2881 98.8779 18.6777 99.2686 18.1113C99.6494 17.5449 100.079 17.0225 100.558 16.5439C101.046 16.0557 101.568 15.6211 102.125 15.2402C103.385 14.3906 104.615 13.9658 105.816 13.9658C106.334 13.9658 106.778 14.1025 107.149 14.376C107.53 14.6396 107.735 15.0254 107.765 15.5332C107.794 16.0312 107.765 16.5 107.677 16.9395C107.589 17.3789 107.457 17.8184 107.281 18.2578C106.93 19.1562 106.432 20.0059 105.787 20.8066C105.855 21.0898 106.041 21.2314 106.344 21.2314C106.656 21.2314 106.949 21.1631 107.223 21.0264C107.506 20.8799 107.784 20.7041 108.058 20.499C108.341 20.2842 108.614 20.0498 108.878 19.7959C109.151 19.5322 109.4 19.2832 109.625 19.0488L110.182 18.4336C110.338 18.248 110.45 18.1211 110.519 18.0527L110.841 18.3018C110.714 18.4189 110.553 18.585 110.357 18.7998C110.162 19.0146 109.942 19.2441 109.698 19.4883C109.698 19.4883 109.439 19.7422 108.922 20.25C107.916 21.1777 107.027 21.6416 106.256 21.6416ZM100.177 23.4727C100.333 23.5508 100.553 23.5898 100.836 23.5898C101.471 23.5898 102.286 23.2334 103.282 22.5205C104.044 21.9736 104.723 21.3438 105.318 20.6309V20.5723C105.318 19.7422 105.631 19.1172 106.256 18.6973C106.422 18.5801 106.578 18.4971 106.725 18.4482C107.193 17.4521 107.413 16.6367 107.384 16.002C107.325 14.9961 106.954 14.4932 106.271 14.4932C105.118 14.4932 103.502 15.792 101.422 18.3896C100.084 20.0693 99.4541 21.3779 99.5322 22.3154C99.5322 22.8525 99.7471 23.2383 100.177 23.4727ZM109.757 21.8906C109.483 25.4062 108.668 28.5312 107.311 31.2656C106.432 33.043 105.445 34.2832 104.352 34.9863C103.795 35.3477 103.272 35.5283 102.784 35.5283C102.296 35.5283 101.92 35.3916 101.656 35.1182C101.383 34.8545 101.241 34.5518 101.231 34.21C101.222 33.8779 101.246 33.5605 101.305 33.2578C101.354 32.9551 101.471 32.5938 101.656 32.1738C101.832 31.7637 102.081 31.2656 102.403 30.6797C102.716 30.1035 103.126 29.4053 103.634 28.585L105.465 25.6992L109.332 19.8398C109.039 19.3809 108.839 18.9219 108.731 18.4629C108.624 18.0039 108.595 17.6279 108.644 17.335C108.683 17.042 108.785 16.7979 108.951 16.6025C109.117 16.3975 109.322 16.2949 109.566 16.2949C109.801 16.2949 109.996 16.373 110.152 16.5293C110.299 16.6855 110.372 16.8613 110.372 17.0566C110.372 17.252 110.348 17.4229 110.299 17.5693C110.24 17.7061 110.167 17.8379 110.079 17.9648C109.874 18.2773 109.654 18.4922 109.42 18.6094C109.459 18.8242 109.542 19.0635 109.669 19.3271L116.861 8.17969C117.486 7.21289 118.214 6.20703 119.044 5.16211C119.884 4.11719 120.597 3.30176 121.183 2.71582C122.413 1.48535 123.39 0.870117 124.112 0.870117C124.532 0.870117 124.845 0.992187 125.05 1.23633C125.255 1.48047 125.367 1.86621 125.387 2.39355C125.406 2.91113 125.221 3.63379 124.83 4.56152C124.439 5.47949 123.902 6.46094 123.219 7.50586C122.535 8.54102 121.734 9.60547 120.816 10.6992C119.908 11.7832 118.941 12.8379 117.916 13.8633C115.748 15.9922 113.648 17.7012 111.617 18.9902L110.577 20.6016C111.046 21.002 111.656 21.2266 112.408 21.2754C113.17 21.3242 113.893 21.2461 114.576 21.041C115.26 20.8262 115.86 20.5527 116.378 20.2207C117.081 19.7617 117.828 19.0439 118.619 18.0674L118.956 18.3018C118.849 18.3994 118.702 18.5605 118.517 18.7852C118.331 19.0098 118.097 19.2588 117.813 19.5322C117.54 19.7959 117.218 20.0693 116.847 20.3525C116.485 20.626 116.07 20.8701 115.602 21.085C114.557 21.5732 113.419 21.7539 112.188 21.627C111.485 21.5488 110.875 21.3242 110.357 20.9531L109.757 21.8906ZM112.145 18.1699C114.967 16.2461 117.75 13.5752 120.494 10.1572C122.506 7.65723 123.819 5.49414 124.435 3.66797C124.815 2.53516 124.84 1.7832 124.508 1.41211C124.381 1.27539 124.229 1.20703 124.054 1.20703C123.888 1.20703 123.697 1.27539 123.482 1.41211C123.268 1.53906 123.004 1.77344 122.691 2.11523C122.076 2.79883 121.319 3.84375 120.421 5.25L112.145 18.1699ZM109.273 22.623L104.337 30.1816L103.165 32.1152C102.462 33.3359 102.11 34.1465 102.11 34.5469C102.11 34.7129 102.174 34.8545 102.301 34.9717C102.418 35.0986 102.599 35.1621 102.843 35.1621C103.077 35.1621 103.395 35.0254 103.795 34.752C104.186 34.4785 104.605 34.0879 105.055 33.5801C105.494 33.0723 105.943 32.4473 106.402 31.7051C106.852 30.9727 107.271 30.1426 107.662 29.2148C108.521 27.1445 109.059 24.9473 109.273 22.623ZM117.872 21.8906C117.599 25.4062 116.783 28.5312 115.426 31.2656C114.547 33.043 113.561 34.2832 112.467 34.9863C111.91 35.3477 111.388 35.5283 110.899 35.5283C110.411 35.5283 110.035 35.3916 109.771 35.1182C109.498 34.8545 109.356 34.5518 109.347 34.21C109.337 33.8779 109.361 33.5605 109.42 33.2578C109.469 32.9551 109.586 32.5938 109.771 32.1738C109.947 31.7637 110.196 31.2656 110.519 30.6797C110.831 30.1035 111.241 29.4053 111.749 28.585L113.58 25.6992L117.447 19.8398C117.154 19.3809 116.954 18.9219 116.847 18.4629C116.739 18.0039 116.71 17.6279 116.759 17.335C116.798 17.042 116.9 16.7979 117.066 16.6025C117.232 16.3975 117.438 16.2949 117.682 16.2949C117.916 16.2949 118.111 16.373 118.268 16.5293C118.414 16.6855 118.487 16.8613 118.487 17.0566C118.487 17.252 118.463 17.4229 118.414 17.5693C118.355 17.7061 118.282 17.8379 118.194 17.9648C117.989 18.2773 117.77 18.4922 117.535 18.6094C117.574 18.8242 117.657 19.0635 117.784 19.3271L124.977 8.17969C125.602 7.21289 126.329 6.20703 127.159 5.16211C127.999 4.11719 128.712 3.30176 129.298 2.71582C130.528 1.48535 131.505 0.870117 132.228 0.870117C132.647 0.870117 132.96 0.992187 133.165 1.23633C133.37 1.48047 133.482 1.86621 133.502 2.39355C133.521 2.91113 133.336 3.63379 132.945 4.56152C132.555 5.47949 132.018 6.46094 131.334 7.50586C130.65 8.54102 129.85 9.60547 128.932 10.6992C128.023 11.7832 127.057 12.8379 126.031 13.8633C123.863 15.9922 121.764 17.7012 119.732 18.9902L118.692 20.6016C119.161 21.002 119.771 21.2266 120.523 21.2754C121.285 21.3242 122.008 21.2461 122.691 21.041C123.375 20.8262 123.976 20.5527 124.493 20.2207C125.196 19.7617 125.943 19.0439 126.734 18.0674L127.071 18.3018C126.964 18.3994 126.817 18.5605 126.632 18.7852C126.446 19.0098 126.212 19.2588 125.929 19.5322C125.655 19.7959 125.333 20.0693 124.962 20.3525C124.601 20.626 124.186 20.8701 123.717 21.085C122.672 21.5732 121.534 21.7539 120.304 21.627C119.601 21.5488 118.99 21.3242 118.473 20.9531L117.872 21.8906ZM120.26 18.1699C123.082 16.2461 125.865 13.5752 128.609 10.1572C130.621 7.65723 131.935 5.49414 132.55 3.66797C132.931 2.53516 132.955 1.7832 132.623 1.41211C132.496 1.27539 132.345 1.20703 132.169 1.20703C132.003 1.20703 131.812 1.27539 131.598 1.41211C131.383 1.53906 131.119 1.77344 130.807 2.11523C130.191 2.79883 129.435 3.84375 128.536 5.25L120.26 18.1699ZM117.389 22.623L112.452 30.1816L111.28 32.1152C110.577 33.3359 110.226 34.1465 110.226 34.5469C110.226 34.7129 110.289 34.8545 110.416 34.9717C110.533 35.0986 110.714 35.1621 110.958 35.1621C111.192 35.1621 111.51 35.0254 111.91 34.752C112.301 34.4785 112.721 34.0879 113.17 33.5801C113.609 33.0723 114.059 32.4473 114.518 31.7051C114.967 30.9727 115.387 30.1426 115.777 29.2148C116.637 27.1445 117.174 24.9473 117.389 22.623ZM132.301 22.7402C131.686 23.1309 131.017 23.4531 130.294 23.707C129.581 23.9609 128.902 24.0879 128.258 24.0879C127.613 24.0879 127.12 24.0244 126.778 23.8975C126.446 23.7607 126.173 23.5752 125.958 23.3408C125.04 22.3447 125.045 20.875 125.973 18.9316C126.373 18.0723 126.979 17.291 127.789 16.5879C128.6 15.875 129.312 15.3428 129.928 14.9912C131.119 14.3076 132.237 13.9658 133.282 13.9658C134.317 13.9658 134.859 14.2881 134.908 14.9326C134.977 15.9775 133.707 17.1152 131.1 18.3457C130.143 18.7949 128.937 19.2588 127.481 19.7373C126.905 20.6748 126.617 21.4414 126.617 22.0371C126.617 22.623 126.769 23.043 127.071 23.2969C127.384 23.541 127.833 23.6631 128.419 23.6631C129.015 23.6631 129.654 23.5361 130.338 23.2822C131.031 23.0283 131.676 22.7061 132.271 22.3154C132.877 21.9248 133.424 21.5 133.912 21.041C134.4 20.582 134.83 20.1426 135.201 19.7227C135.582 19.3027 135.89 18.9414 136.124 18.6387C136.368 18.3262 136.534 18.1309 136.622 18.0527L136.93 18.3018C136.803 18.4092 136.607 18.6289 136.344 18.9609C136.09 19.293 135.763 19.6738 135.362 20.1035C134.972 20.5234 134.518 20.9678 134 21.4365C133.492 21.9053 132.926 22.3398 132.301 22.7402ZM127.818 19.2246C130.768 18.1895 132.667 17.1592 133.517 16.1338C133.8 15.792 133.941 15.46 133.941 15.1377C133.941 14.5908 133.688 14.3174 133.18 14.3174C132.281 14.3174 131.158 15.1035 129.811 16.6758C128.873 17.7695 128.209 18.6191 127.818 19.2246ZM142.174 22.7402C141.559 23.1309 140.89 23.4531 140.167 23.707C139.454 23.9609 138.775 24.0879 138.131 24.0879C137.486 24.0879 136.993 24.0244 136.651 23.8975C136.319 23.7607 136.046 23.5752 135.831 23.3408C134.913 22.3447 134.918 20.875 135.846 18.9316C136.246 18.0723 136.852 17.291 137.662 16.5879C138.473 15.875 139.186 15.3428 139.801 14.9912C140.992 14.3076 142.11 13.9658 143.155 13.9658C144.19 13.9658 144.732 14.2881 144.781 14.9326C144.85 15.9775 143.58 17.1152 140.973 18.3457C140.016 18.7949 138.81 19.2588 137.354 19.7373C136.778 20.6748 136.49 21.4414 136.49 22.0371C136.49 22.623 136.642 23.043 136.944 23.2969C137.257 23.541 137.706 23.6631 138.292 23.6631C138.888 23.6631 139.527 23.5361 140.211 23.2822C140.904 23.0283 141.549 22.7061 142.145 22.3154C142.75 21.9248 143.297 21.5 143.785 21.041C144.273 20.582 144.703 20.1426 145.074 19.7227C145.455 19.3027 145.763 18.9414 145.997 18.6387C146.241 18.3262 146.407 18.1309 146.495 18.0527L146.803 18.3018C146.676 18.4092 146.48 18.6289 146.217 18.9609C145.963 19.293 145.636 19.6738 145.235 20.1035C144.845 20.5234 144.391 20.9678 143.873 21.4365C143.365 21.9053 142.799 22.3398 142.174 22.7402ZM137.691 19.2246C140.641 18.1895 142.54 17.1592 143.39 16.1338C143.673 15.792 143.814 15.46 143.814 15.1377C143.814 14.5908 143.561 14.3174 143.053 14.3174C142.154 14.3174 141.031 15.1035 139.684 16.6758C138.746 17.7695 138.082 18.6191 137.691 19.2246ZM153.98 21.5098C153.98 21.7051 153.897 21.876 153.731 22.0225C153.565 22.1592 153.351 22.2275 153.087 22.2275C152.813 22.2275 152.604 22.1836 152.457 22.0957V22.1836C152.457 22.6133 152.667 22.9648 153.087 23.2383C153.497 23.5117 153.985 23.6484 154.552 23.6484C155.851 23.6484 157.115 23.1895 158.346 22.2715C159.254 21.5977 160.187 20.7139 161.144 19.6201L163.883 16.3389C163.6 16.417 163.326 16.5 163.062 16.5879L162.315 16.8223C159.562 17.7793 157.735 18.9512 156.837 20.3379C156.788 20.4258 156.734 20.4697 156.676 20.4697C156.607 20.4697 156.583 20.4453 156.603 20.3965C156.612 20.3379 156.622 20.2939 156.632 20.2646C156.632 20.2256 156.671 20.123 156.749 19.957C156.837 19.7812 157.013 19.5664 157.276 19.3125C157.54 19.0488 157.838 18.7949 158.17 18.5508C159.244 17.7695 160.279 17.1982 161.275 16.8369C162.281 16.4756 163.272 16.1533 164.249 15.8701C164.845 15.0498 165.426 14.2832 165.992 13.5703C167.438 11.832 168.399 10.7041 168.878 10.1865C168.878 10.1865 169.273 9.7666 170.064 8.92676C168.346 9.99121 166.959 10.5234 165.904 10.5234C165.406 10.5234 164.991 10.4062 164.659 10.1719C164.337 9.92773 164.176 9.625 164.176 9.26367C164.176 8.89258 164.205 8.58984 164.264 8.35547C164.322 8.12109 164.43 7.87695 164.586 7.62305C164.889 7.125 165.426 6.57324 166.197 5.96777C166.695 5.57715 166.964 5.32812 167.003 5.2207C167.042 5.11328 167.062 5.03516 167.062 4.98633C167.062 4.69336 166.905 4.4541 166.593 4.26855C166.29 4.08301 165.787 3.99023 165.084 3.99023C163.531 3.99023 162.174 4.52246 161.012 5.58691C160.855 5.72363 160.729 5.79199 160.631 5.79199C160.533 5.79199 160.484 5.75781 160.484 5.68945C160.484 5.5918 160.572 5.45508 160.748 5.2793C161.959 4.21484 163.424 3.68262 165.143 3.68262C165.963 3.68262 166.593 3.83398 167.032 4.13672C167.481 4.42969 167.706 4.83496 167.706 5.35254C167.706 5.94824 167.584 6.43164 167.34 6.80273C166.92 7.4668 166.29 8.06738 165.45 8.60449C165.138 8.7998 164.938 8.95117 164.85 9.05859C164.762 9.15625 164.718 9.25879 164.718 9.36621C164.718 9.46387 164.737 9.55664 164.776 9.64453C164.825 9.72266 164.903 9.80078 165.011 9.87891C165.265 10.0449 165.582 10.1279 165.963 10.1279C166.354 10.1279 166.749 10.0693 167.149 9.95215C167.55 9.83496 167.975 9.66406 168.424 9.43945C169.391 8.95117 170.265 8.36035 171.046 7.66699C173.282 5.72363 174.62 4.61035 175.06 4.32715C175.499 4.03418 175.816 3.83887 176.012 3.74121L176.451 3.53613C176.529 3.49707 176.612 3.47754 176.7 3.47754C176.798 3.47754 176.847 3.50195 176.847 3.55078C176.847 3.58984 176.822 3.62402 176.773 3.65332C176.734 3.67285 176.676 3.70703 176.598 3.75586C176.52 3.80469 176.451 3.84375 176.393 3.87305C176.344 3.90234 176.28 3.94141 176.202 3.99023L175.47 4.51758C174.542 5.2793 173.639 6.21191 172.76 7.31543L170.46 10.2891L168.395 13.1455L166.783 15.1816L172.452 13.7754L173.199 12.8818C175.338 10.3721 177.726 8.14062 180.362 6.1875C182.94 4.29297 184.84 3.3457 186.061 3.3457C186.5 3.3457 186.827 3.44824 187.042 3.65332C187.267 3.84863 187.379 4.10254 187.379 4.41504C187.379 4.71777 187.242 5.09863 186.969 5.55762C186.705 6.0166 186.314 6.51465 185.797 7.05176C185.289 7.5791 184.664 8.13086 183.922 8.70703C183.18 9.2832 182.34 9.85449 181.402 10.4209C179.293 11.6904 177.047 12.7109 174.664 13.4824C172.145 16.5391 170.45 19.0098 169.581 20.8945C169.298 21.5 169.156 22.0078 169.156 22.418C169.156 22.8281 169.249 23.1406 169.435 23.3555C169.62 23.5605 169.957 23.6631 170.445 23.6631C170.943 23.6631 171.485 23.5068 172.071 23.1943C172.667 22.8721 173.238 22.418 173.785 21.832C174.996 20.5332 175.895 18.9121 176.48 16.9688C176.568 16.6758 176.686 16.5293 176.832 16.5293C176.91 16.5293 176.964 16.6904 176.993 17.0127C177.032 17.3252 176.969 17.7256 176.803 18.2139C176.646 18.7021 176.417 19.21 176.114 19.7373C175.812 20.2549 175.44 20.7725 175.001 21.29C174.571 21.7979 174.103 22.2568 173.595 22.667C172.472 23.5752 171.363 24.0293 170.27 24.0293C169.391 24.0293 168.805 23.624 168.512 22.8135C168.424 22.5889 168.38 22.3057 168.38 21.9639C168.38 21.6123 168.438 21.168 168.556 20.6309C168.673 20.084 168.873 19.4883 169.156 18.8438C169.781 17.4668 170.758 15.9287 172.086 14.2295C171.197 14.4834 170.26 14.7275 169.273 14.9619L166.373 15.6797L164.205 18.1846C162.818 19.708 161.686 20.8066 160.807 21.4805C159.938 22.1543 159.195 22.667 158.58 23.0186C157.389 23.6924 156.085 24.0293 154.669 24.0293C153.897 24.0293 153.238 23.8389 152.691 23.458C152.154 23.0771 151.886 22.6133 151.886 22.0664C151.886 21.4609 152.184 21.0801 152.779 20.9238C152.945 20.875 153.102 20.8506 153.248 20.8506C153.736 20.8506 153.98 21.0703 153.98 21.5098ZM175.104 12.9697C178.229 11.7686 181.012 10.1816 183.453 8.20898C184.898 7.03711 185.899 6.02637 186.456 5.17676C186.729 4.75684 186.866 4.41504 186.866 4.15137C186.866 3.81934 186.651 3.65332 186.222 3.65332C185.802 3.65332 185.338 3.77539 184.83 4.01953C184.322 4.26367 183.766 4.60059 183.16 5.03027C182.564 5.4502 181.93 5.95801 181.256 6.55371C180.592 7.13965 179.913 7.7793 179.22 8.47266C178.526 9.15625 177.828 9.87891 177.125 10.6406L175.104 12.9697ZM186.529 21.6416C186.168 21.6416 185.904 21.4951 185.738 21.2021C184.576 22.5205 183.321 23.3945 181.974 23.8242C181.524 23.9609 181.085 24.0293 180.655 24.0293C180.235 24.0293 179.874 23.9805 179.571 23.8828C179.269 23.7852 179.02 23.6484 178.824 23.4727C178.033 22.7891 177.955 21.6123 178.59 19.9424C178.834 19.2881 179.151 18.6777 179.542 18.1113C179.923 17.5449 180.353 17.0225 180.831 16.5439C181.319 16.0557 181.842 15.6211 182.398 15.2402C183.658 14.3906 184.889 13.9658 186.09 13.9658C186.607 13.9658 187.052 14.1025 187.423 14.376C187.804 14.6396 188.009 15.0254 188.038 15.5332C188.067 16.0312 188.038 16.5 187.95 16.9395C187.862 17.3789 187.73 17.8184 187.555 18.2578C187.203 19.1562 186.705 20.0059 186.061 20.8066C186.129 21.0898 186.314 21.2314 186.617 21.2314C186.93 21.2314 187.223 21.1631 187.496 21.0264C187.779 20.8799 188.058 20.7041 188.331 20.499C188.614 20.2842 188.888 20.0498 189.151 19.7959C189.425 19.5322 189.674 19.2832 189.898 19.0488L190.455 18.4336C190.611 18.248 190.724 18.1211 190.792 18.0527L191.114 18.3018C190.987 18.4189 190.826 18.585 190.631 18.7998C190.436 19.0146 190.216 19.2441 189.972 19.4883C189.972 19.4883 189.713 19.7422 189.195 20.25C188.189 21.1777 187.301 21.6416 186.529 21.6416ZM180.45 23.4727C180.606 23.5508 180.826 23.5898 181.109 23.5898C181.744 23.5898 182.56 23.2334 183.556 22.5205C184.317 21.9736 184.996 21.3438 185.592 20.6309V20.5723C185.592 19.7422 185.904 19.1172 186.529 18.6973C186.695 18.5801 186.852 18.4971 186.998 18.4482C187.467 17.4521 187.687 16.6367 187.657 16.002C187.599 14.9961 187.228 14.4932 186.544 14.4932C185.392 14.4932 183.775 15.792 181.695 18.3896C180.357 20.0693 179.728 21.3779 179.806 22.3154C179.806 22.8525 180.021 23.2383 180.45 23.4727ZM189.503 23.1357C189.503 23.4873 189.737 23.6631 190.206 23.6631C190.86 23.6631 191.563 23.4141 192.315 22.916C193.937 21.832 195.626 20.2109 197.384 18.0527C197.384 18.0527 198.492 16.7197 200.709 14.0537C201.178 14.1123 201.603 14.1416 201.983 14.1416C202.364 14.1416 202.682 14.127 202.936 14.0977L201.5 15.7529L196.314 22.0664C195.973 22.4863 195.802 22.8281 195.802 23.0918C195.802 23.4434 196.036 23.6191 196.505 23.6191C196.974 23.6191 197.457 23.4971 197.955 23.2529C198.463 22.999 198.966 22.6816 199.464 22.3008C199.972 21.9199 200.465 21.5049 200.943 21.0557C201.422 20.5967 201.856 20.1621 202.247 19.752L203.785 18.0527L204.078 18.3018L203.507 18.9463C203.224 19.2686 202.877 19.6396 202.467 20.0596L201.104 21.3926C199.239 23.1504 197.691 24.0293 196.461 24.0293C196.061 24.0293 195.729 23.9219 195.465 23.707C195.211 23.4824 195.074 23.1846 195.055 22.8135C195.035 22.1006 195.284 21.2949 195.802 20.3965C193.556 22.8184 191.651 24.0293 190.089 24.0293C189.21 24.0293 188.648 23.7168 188.404 23.0918C188.336 22.916 188.297 22.6914 188.287 22.418C188.277 22.1445 188.346 21.8174 188.492 21.4365C188.629 21.0557 188.839 20.6455 189.122 20.2061C189.405 19.7568 189.752 19.2734 190.162 18.7559L192.799 15.5625C193.209 15.0547 193.644 14.5518 194.103 14.0537C194.483 14.1123 194.791 14.1416 195.025 14.1416H195.523C195.943 14.1416 196.212 14.127 196.329 14.0977C195.187 15.3477 194.386 16.251 193.927 16.8076L191.012 20.3086C189.986 21.5 189.483 22.4424 189.503 23.1357ZM208.209 21.3047C208.326 21.3242 208.473 21.334 208.648 21.334C208.834 21.334 209.054 21.2656 209.308 21.1289C209.562 20.9922 209.82 20.8164 210.084 20.6016C210.357 20.3867 210.626 20.1523 210.89 19.8984C211.153 19.6348 211.393 19.3857 211.607 19.1514C211.832 18.9072 212.027 18.6875 212.193 18.4922L212.53 18.0527L212.853 18.3018C212.735 18.4189 212.584 18.5801 212.398 18.7852L211.783 19.4883C210.426 20.9531 209.352 21.6855 208.561 21.6855H208.312C208.233 21.6855 208.155 21.6758 208.077 21.6562C207.257 23.4434 205.514 24.3369 202.848 24.3369C201.686 24.3369 200.841 24.0586 200.313 23.502C200.089 23.2578 199.977 22.9453 199.977 22.5645C199.977 22.1836 200.069 21.8613 200.255 21.5977C200.431 21.3242 200.641 21.0996 200.885 20.9238C201.383 20.5625 201.832 20.3818 202.232 20.3818C202.623 20.3818 202.818 20.5674 202.818 20.9385C202.789 21.1924 202.574 21.3828 202.174 21.5098C202.047 21.5488 201.925 21.5684 201.808 21.5684C201.681 21.5684 201.563 21.5293 201.456 21.4512C201.339 21.3633 201.246 21.2998 201.178 21.2607C201.119 21.3193 201.046 21.3877 200.958 21.4658C200.86 21.5439 200.768 21.6367 200.68 21.7441C200.465 22.0078 200.357 22.2812 200.357 22.5645C200.357 22.8379 200.45 23.0576 200.636 23.2236C200.821 23.3896 201.041 23.5166 201.295 23.6045C201.676 23.7412 202.076 23.8096 202.496 23.8096C202.906 23.8096 203.331 23.7217 203.771 23.5459C204.22 23.3701 204.659 23.0771 205.089 22.667C206.271 21.5439 206.91 19.8789 207.008 17.6719C207.066 16.1875 207.247 15.0254 207.55 14.1855C207.56 14.1562 207.564 14.1123 207.564 14.0537L204.107 18.3018C203.912 18.5361 203.771 18.6875 203.683 18.7559C203.585 18.8242 203.536 18.8584 203.536 18.8584C203.419 18.8682 203.341 18.8389 203.302 18.7705C203.282 18.7217 203.326 18.6289 203.434 18.4922C205.953 15.4844 207.369 13.7754 207.682 13.3652C207.838 12.6035 208.092 12.2227 208.443 12.2227C208.609 12.2227 208.746 12.2666 208.854 12.3545C208.971 12.4424 209.029 12.5547 209.029 12.6914C209.02 12.877 208.868 13.1406 208.575 13.4824C208.292 13.8145 208.116 14.0293 208.048 14.127C207.989 14.2148 207.95 14.293 207.931 14.3613C207.911 14.4199 207.901 14.4785 207.901 14.5371V14.7129C207.892 14.9766 207.916 15.2891 207.975 15.6504L208.341 18.082C208.556 19.4102 208.512 20.4844 208.209 21.3047ZM218.082 22.7402C217.467 23.1309 216.798 23.4531 216.075 23.707C215.362 23.9609 214.684 24.0879 214.039 24.0879C213.395 24.0879 212.901 24.0244 212.56 23.8975C212.228 23.7607 211.954 23.5752 211.739 23.3408C210.821 22.3447 210.826 20.875 211.754 18.9316C212.154 18.0723 212.76 17.291 213.57 16.5879C214.381 15.875 215.094 15.3428 215.709 14.9912C216.9 14.3076 218.019 13.9658 219.063 13.9658C220.099 13.9658 220.641 14.2881 220.689 14.9326C220.758 15.9775 219.488 17.1152 216.881 18.3457C215.924 18.7949 214.718 19.2588 213.263 19.7373C212.687 20.6748 212.398 21.4414 212.398 22.0371C212.398 22.623 212.55 23.043 212.853 23.2969C213.165 23.541 213.614 23.6631 214.2 23.6631C214.796 23.6631 215.436 23.5361 216.119 23.2822C216.812 23.0283 217.457 22.7061 218.053 22.3154C218.658 21.9248 219.205 21.5 219.693 21.041C220.182 20.582 220.611 20.1426 220.982 19.7227C221.363 19.3027 221.671 18.9414 221.905 18.6387C222.149 18.3262 222.315 18.1309 222.403 18.0527L222.711 18.3018C222.584 18.4092 222.389 18.6289 222.125 18.9609C221.871 19.293 221.544 19.6738 221.144 20.1035C220.753 20.5234 220.299 20.9678 219.781 21.4365C219.273 21.9053 218.707 22.3398 218.082 22.7402ZM213.6 19.2246C216.549 18.1895 218.448 17.1592 219.298 16.1338C219.581 15.792 219.723 15.46 219.723 15.1377C219.723 14.5908 219.469 14.3174 218.961 14.3174C218.062 14.3174 216.939 15.1035 215.592 16.6758C214.654 17.7695 213.99 18.6191 213.6 19.2246Z" fill="white"/>
</svg>
